<svg width="287" height="89" viewBox="0 0 287 89" fill="none" xmlns="http://www.w3.org/2000/svg">
<path d="M0 88.6018C0.189914 88.6059 0.381914 88.608 0.576 88.608C3.264 88.608 5.76 88 8.064 86.784C10.368 85.632 12.224 83.936 13.632 81.696C15.04 79.456 15.744 76.672 15.744 73.344V22.944H7.104V73.44C7.104 75.808 6.4 77.568 4.992 78.72C3.584 79.936 1.92 80.544 0 80.544V88.6018Z" fill="white"/>
<path d="M7.68 12.288C8.704 13.312 9.984 13.824 11.52 13.824C13.12 13.824 14.432 13.312 15.456 12.288C16.48 11.2 16.992 9.856 16.992 8.256C16.992 6.72 16.48 5.44 15.456 4.416C14.432 3.328 13.12 2.784 11.52 2.784C9.984 2.784 8.704 3.328 7.68 4.416C6.656 5.44 6.144 6.72 6.144 8.256C6.144 9.856 6.656 11.2 7.68 12.288Z" fill="white"/>
<path d="M36.525 66.432C39.917 68.48 43.693 69.504 47.853 69.504C50.0665 69.504 52.1155 69.2256 54 68.6688V60.6652C52.5617 61.1177 50.9927 61.344 49.293 61.344C46.413 61.344 43.853 60.672 41.613 59.328C39.373 57.984 37.613 56.16 36.333 53.856C35.117 51.488 34.509 48.768 34.509 45.696C34.509 42.688 35.117 40.032 36.333 37.728C37.613 35.36 39.341 33.504 41.517 32.16C43.757 30.816 46.317 30.144 49.197 30.144C50.9247 30.144 52.5257 30.3858 54 30.8695V22.8831C52.1074 22.2837 50.0584 21.984 47.853 21.984C43.629 21.984 39.821 23.04 36.429 25.152C33.101 27.264 30.445 30.112 28.461 33.696C26.541 37.28 25.581 41.312 25.581 45.792C25.581 50.272 26.541 54.304 28.461 57.888C30.445 61.472 33.133 64.32 36.525 66.432Z" fill="white"/>
<path d="M59.1624 57.544H71.757V34.544H59.7118C60.5217 35.4428 61.2088 36.4722 61.773 37.632C62.989 39.936 63.597 42.656 63.597 45.792C63.597 50.336 62.285 54.08 59.661 57.024C59.498 57.2029 59.3318 57.3762 59.1624 57.544Z" fill="white"/>
<path d="M104.496 68.928L95.856 87.648H93V73.8228L97.4733 64.6526L79.536 22.944H89.136L102.327 55.2752L116.208 22.944H125.808L104.496 68.928Z" fill="white"/>
<path d="M149 68.2114C151.312 69.0731 153.82 69.504 156.523 69.504C160.684 69.504 164.428 68.48 167.756 66.432C171.148 64.32 173.803 61.472 175.724 57.888C177.643 54.304 178.604 50.272 178.604 45.792C178.604 41.312 177.643 37.28 175.724 33.696C173.803 30.112 171.148 27.264 167.756 25.152C164.428 23.04 160.684 21.984 156.523 21.984C153.835 21.984 151.327 22.4465 149 23.3714V31.4081C150.839 30.5654 152.899 30.144 155.18 30.144C157.995 30.144 160.492 30.816 162.667 32.16C164.844 33.44 166.572 35.264 167.852 37.632C169.132 40 169.771 42.688 169.771 45.696C169.771 48.768 169.132 51.488 167.852 53.856C166.572 56.16 164.844 57.984 162.667 59.328C160.492 60.672 157.964 61.344 155.083 61.344C152.879 61.344 150.851 60.9322 149 60.1087V68.2114Z" fill="white"/>
<path d="M132.523 57.544H145.18C144.078 56.4941 143.155 55.2648 142.411 53.856C141.26 51.488 140.684 48.8 140.684 45.792C140.684 42.72 141.292 40 142.508 37.632C143.103 36.4722 143.814 35.4428 144.64 34.544H132.523V57.544Z" fill="white"/>
<path d="M141.163 0V19.544H132.523V0H141.163Z" fill="white"/>
<path d="M196.462 66.432C199.855 68.48 203.63 69.504 207.79 69.504C210.028 69.504 212.098 69.2194 214 68.6503V60.6454C212.545 61.1111 210.955 61.344 209.23 61.344C206.35 61.344 203.79 60.672 201.551 59.328C199.311 57.984 197.551 56.16 196.271 53.856C195.055 51.488 194.447 48.768 194.447 45.696C194.447 42.688 195.055 40.032 196.271 37.728C197.551 35.36 199.279 33.504 201.454 32.16C203.695 30.816 206.255 30.144 209.135 30.144C210.887 30.144 212.508 30.3927 214 30.8902V22.903C212.09 22.2903 210.02 21.984 207.79 21.984C203.566 21.984 199.758 23.04 196.367 25.152C193.038 27.264 190.383 30.112 188.398 33.696C186.479 37.28 185.518 41.312 185.518 45.792C185.518 50.272 186.479 54.304 188.398 57.888C190.383 61.472 193.07 64.32 196.462 66.432Z" fill="white"/>
<path d="M231.695 34.544V57.544H219.1C219.269 57.3762 219.436 57.2029 219.599 57.024C222.223 54.08 223.535 50.336 223.535 45.792C223.535 42.656 222.926 39.936 221.71 37.632C221.146 36.4722 220.459 35.4428 219.649 34.544H231.695Z" fill="white"/>
<path d="M253.105 66.432C256.754 68.48 260.849 69.504 265.393 69.504C268.978 69.504 272.337 68.832 275.474 67.488C278.673 66.144 281.362 64.192 283.538 61.632L277.97 55.968C276.434 57.76 274.578 59.104 272.401 60C270.289 60.896 267.953 61.344 265.393 61.344C262.322 61.344 259.602 60.704 257.233 59.424C254.865 58.08 253.042 56.224 251.762 53.856C251.538 53.4304 251.333 52.9931 251.148 52.544H242.195C242.721 54.4303 243.478 56.2117 244.465 57.888C246.577 61.472 249.458 64.32 253.105 66.432Z" fill="white"/>
<path d="M242.59 37.544C243.057 36.174 243.65 34.8594 244.37 33.6C246.482 30.016 249.298 27.2 252.818 25.152C256.401 23.04 260.401 21.984 264.818 21.984C269.042 21.984 272.754 22.944 275.953 24.864C279.217 26.784 281.746 29.44 283.538 32.832C285.393 36.224 286.322 40.064 286.322 44.352C286.322 44.992 286.289 45.696 286.225 46.464C286.161 47.168 286.034 48 285.841 48.96H258V41.76H277.901C277.665 39.8727 277.176 38.2087 276.434 36.768C275.345 34.592 273.81 32.928 271.826 31.776C269.841 30.56 267.441 29.952 264.625 29.952C261.681 29.952 259.09 30.592 256.849 31.872C254.609 33.152 252.882 34.944 251.665 37.248C251.614 37.3459 251.563 37.4446 251.514 37.544H242.59Z" fill="white"/>
</svg>
